<svg width="326" height="63" viewBox="0 0 326 63" fill="none" xmlns="http://www.w3.org/2000/svg">
<g clip-path="url(#clip0_1:726)">
<path d="M2.08664 14.7783L13.1708 8.40884L39.9564 23.8522L28.6651 30.5024C28.3883 30.662 28.0745 30.746 27.7549 30.746C27.4354 30.746 27.1215 30.662 26.8448 30.5024L2.08664 16.0936C1.96543 16.0316 1.86372 15.9374 1.79269 15.8213C1.72166 15.7053 1.68408 15.5719 1.68408 15.4359C1.68408 15.2999 1.72166 15.1666 1.79269 15.0506C1.86372 14.9345 1.96543 14.8403 2.08664 14.7783V14.7783Z" fill="#DDA87D"/>
<path d="M15.5682 6.91626L27.4072 0.103452C27.5197 0.0385981 27.6473 0.00445557 27.7771 0.00445557C27.907 0.00445557 28.0346 0.0385981 28.1471 0.103452L53.4824 14.7783C53.5897 14.8427 53.6785 14.9337 53.7401 15.0424C53.8017 15.1512 53.8341 15.2741 53.8341 15.399C53.8341 15.524 53.8017 15.6468 53.7401 15.7556C53.6785 15.8644 53.5897 15.9553 53.4824 16.0197L42.3538 22.5665L15.5682 6.91626Z" fill="#DDA87D"/>
<path d="M43.2861 24.1626V33.9015C43.2851 33.9545 43.271 34.0065 43.2452 34.0528C43.2194 34.0992 43.1827 34.1386 43.1381 34.1675L41.4363 35.1724C41.3895 35.1978 41.3369 35.2106 41.2836 35.2099C41.2304 35.2091 41.1782 35.1946 41.1322 35.1679C41.0861 35.1412 41.0477 35.1032 41.0206 35.0574C40.9935 35.0116 40.9787 34.9596 40.9775 34.9064V25.5222L29.5974 32.0394C29.3223 32.1945 29.0936 32.4201 28.9349 32.6928C28.7763 32.9656 28.6933 33.2757 28.6946 33.5911V62.3793C28.6925 62.4874 28.7194 62.594 28.7725 62.6882C28.8256 62.7824 28.903 62.8607 28.9966 62.915C29.0902 62.9693 29.1966 62.9975 29.3049 62.9969C29.4131 62.9963 29.5192 62.9667 29.6122 62.9113L40.8887 56.4089L43.2565 55.0493L54.4887 48.5764C54.7791 48.4039 55.0201 48.1596 55.1886 47.8671C55.3571 47.5747 55.4473 47.2438 55.4506 46.9064V18.3695C55.4488 18.244 55.4143 18.1211 55.3506 18.0129C55.2869 17.9048 55.1961 17.815 55.0872 17.7524C54.9783 17.6898 54.8549 17.6566 54.7292 17.6559C54.6036 17.6553 54.4799 17.6873 54.3703 17.7488L43.2861 24.1626Z" fill="#DDA87D"/>
<path d="M1.21349 17.8226L2.69336 18.6502C3.03046 18.878 3.31012 19.1807 3.51039 19.5345C3.71067 19.8884 3.82611 20.2838 3.84766 20.6896C3.84766 21.4581 3.3149 21.7832 2.63416 21.3842L1.21349 20.6896C0.853031 20.4533 0.554673 20.1339 0.343505 19.7585C0.132337 19.383 0.014533 18.9624 0 18.532H0C0 17.734 0.547551 17.4384 1.21349 17.8226Z" fill="#17B17D"/>
<path d="M10.1519 22.9655L12.6973 24.4433C13.0613 24.6771 13.3633 24.9955 13.5772 25.3713C13.7911 25.747 13.9106 26.169 13.9256 26.601V26.601C13.9256 27.3842 13.378 27.6946 12.6973 27.3103L10.1519 25.8325C9.77553 25.6011 9.46235 25.2803 9.24029 24.8986C9.01822 24.517 8.89418 24.0864 8.87921 23.6453V23.6453C8.87921 22.8916 9.47116 22.5813 10.1519 22.9655Z" fill="#17B17D"/>
<path d="M19.0755 28.0788L25.8977 32.0098C26.1709 32.1708 26.3977 32.3997 26.5559 32.6742C26.7141 32.9488 26.7983 33.2596 26.8004 33.5763V35.335L19.0755 30.9015C18.7229 30.6709 18.4294 30.3609 18.2187 29.9964C18.0079 29.6319 17.8857 29.2231 17.862 28.8029V28.8029C17.862 28.0788 18.4096 27.7241 19.0755 28.0788Z" fill="#17B17D"/>
<path d="M22.3164 32.7931C22.669 33.0237 22.9625 33.3337 23.1732 33.6981C23.384 34.0626 23.5061 34.4714 23.5299 34.8916V34.8916C23.5299 35.6749 22.9823 35.9852 22.3164 35.601L26.756 38.1724V35.3645L22.3164 32.7931Z" fill="#17B17D"/>
<path d="M1.21349 23.4384L4.14363 25.1231C4.49816 25.3552 4.79283 25.6675 5.0037 26.0347C5.21456 26.4019 5.33565 26.8137 5.35712 27.2364V27.2364C5.35712 28.0049 4.80957 28.3153 4.14363 27.931L1.18389 26.2463C0.836803 26.0125 0.54908 25.701 0.34357 25.3368C0.13806 24.9725 0.0204235 24.5654 0 24.1478H0C0 23.3645 0.547551 23.0542 1.21349 23.4384Z" fill="#17B17D"/>
<path d="M9.11602 27.9901L26.8744 38.1724V40.9803L9.11602 30.798C8.76344 30.5674 8.46997 30.2574 8.2592 29.893C8.04844 29.5285 7.92628 29.1197 7.90253 28.6995V28.6995C7.90253 27.9162 8.45008 27.6059 9.11602 27.9901Z" fill="#17B17D"/>
<path d="M1.21349 29.0542L5.47551 31.5074C5.83362 31.7369 6.13182 32.0483 6.34542 32.4158C6.55902 32.7833 6.68187 33.1963 6.7038 33.6207V33.6207C6.7038 34.3892 6.15625 34.6995 5.47551 34.3153L1.21349 31.8621C0.860911 31.6315 0.567439 31.3215 0.356678 30.957C0.145917 30.5925 0.0237489 30.1838 0 29.7635H0C0 28.9803 0.547551 28.67 1.21349 29.0542Z" fill="#17B17D"/>
<path d="M1.22829 34.6699L7.14776 38.1281C7.50199 38.3569 7.79672 38.6665 8.00769 39.0313C8.21867 39.3962 8.33984 39.8058 8.36125 40.2266C8.36125 40.9951 7.8285 41.3202 7.14776 40.9212L1.22829 37.4778C0.870185 37.2483 0.571984 36.9369 0.358384 36.5694C0.144784 36.2019 0.021931 35.7889 0 35.3645H0C0 34.596 0.547551 34.2857 1.22829 34.6699Z" fill="#17B17D"/>
<path d="M1.22829 40.2857L2.70816 41.0985C3.06626 41.328 3.36446 41.6394 3.57806 42.0069C3.79166 42.3744 3.91452 42.7875 3.93645 43.2118C3.93645 43.9803 3.3889 44.2907 2.70816 43.9064L1.30228 43.0936C0.930415 42.8726 0.617703 42.5649 0.390906 42.1969C0.164109 41.8288 0.029981 41.4114 0 40.9803H0C0 40.2118 0.547551 39.9015 1.22829 40.2857Z" fill="#17B17D"/>
<path d="M10.4479 34.3744L26.8004 43.7882V46.5961L10.5218 37.1823C10.1693 36.9517 9.87579 36.6417 9.66503 36.2772C9.45427 35.9127 9.3321 35.504 9.30835 35.0837V35.0837C9.23436 34.3005 9.78191 33.9901 10.4479 34.3744Z" fill="#17B17D"/>
<path d="M20.0966 42.7389C20.4456 42.972 20.7356 43.2829 20.9437 43.6471C21.1517 44.0113 21.2721 44.4188 21.2953 44.8374C21.2953 45.6059 20.7626 45.931 20.0966 45.5468L26.8004 49.4039V46.5961L20.0966 42.7389Z" fill="#17B17D"/>
<path d="M12.1349 40.9655L26.8004 49.4039V52.2118L12.1349 43.7586C11.7807 43.5298 11.486 43.2202 11.275 42.8554C11.064 42.4905 10.9429 42.0809 10.9214 41.6601V41.6601C10.9214 40.8916 11.4542 40.5665 12.1349 40.9655Z" fill="#17B17D"/>
<path d="M21.3101 49.0493C21.6093 49.2899 21.8547 49.5904 22.0305 49.9315C22.2064 50.2726 22.3088 50.6466 22.3312 51.0296V51.0296C22.3312 51.7241 21.8873 52.0493 21.3101 51.8276L26.8004 54.9901V52.1823L21.3101 49.0493Z" fill="#17B17D"/>
<path d="M7.91729 44.1428L26.8004 55.0197V57.8276L7.91729 46.9507C7.56276 46.7187 7.26808 46.4063 7.05722 46.0391C6.84636 45.6719 6.72527 45.2602 6.7038 44.8374V44.8374C6.7038 44.0689 7.25135 43.7586 7.91729 44.1428Z" fill="#17B17D"/>
<path d="M26.8004 57.8276L19.6526 53.7192L19.8302 53.8079C20.1831 54.0416 20.4766 54.3544 20.6872 54.7212C20.8979 55.0881 21.0199 55.499 21.0437 55.9212C21.0437 56.6896 20.4962 57.0148 19.8302 56.6158L26.8004 60.5911V57.8276Z" fill="#17B17D"/>
<path d="M1.22829 45.9015L2.70816 46.7143C3.04401 46.9468 3.32247 47.2526 3.52246 47.6085C3.72245 47.9644 3.83872 48.3611 3.86245 48.7685V48.7685C3.86245 49.5517 3.3149 49.8621 2.64896 49.4778L1.22829 48.7685C0.863077 48.5324 0.560577 48.2114 0.346669 47.8331C0.132761 47.4548 0.0138125 47.0303 0 46.5961H0C0 45.8128 0.547551 45.5025 1.22829 45.9015Z" fill="#17B17D"/>
<path d="M7.39932 49.463L9.42673 50.6305C9.78209 50.8617 10.0774 51.1738 10.2884 51.5412C10.4993 51.9086 10.6199 52.3208 10.6402 52.7438C10.6402 53.5123 10.1075 53.8227 9.42673 53.4384L7.39932 52.2709C7.059 52.0462 6.77426 51.7471 6.56661 51.3964C6.35896 51.0457 6.23381 50.6524 6.20062 50.2463V50.2463C6.20062 49.3892 6.74817 49.0788 7.39932 49.463Z" fill="#17B17D"/>
<path d="M14.2067 53.3793L26.8004 60.5911V62.335C26.7995 62.4435 26.77 62.5498 26.7151 62.6434C26.6601 62.737 26.5816 62.8146 26.4873 62.8684C26.3929 62.9222 26.2861 62.9504 26.1775 62.9502C26.0689 62.9499 25.9622 62.9213 25.8681 62.867L14.2067 56.1576C13.8486 55.9281 13.5504 55.6167 13.3368 55.2492C13.1232 54.8817 13.0004 54.4687 12.9785 54.0443V54.0443C12.9785 53.3054 13.526 52.9951 14.2067 53.3793Z" fill="#17B17D"/>
<path d="M17.862 35.8374C18.3922 36.3231 18.711 36.9968 18.7499 37.7143C18.7499 38.3645 18.38 38.6897 17.862 38.5566L26.7412 43.6995V40.8916L17.862 35.8374Z" fill="#17B17D"/>
<path d="M84.3525 44.1281H78.1222L70.3085 30.4581V44.1281H64.389V21.3399H70.5897L78.433 35.0099V21.3399H84.3525V44.1281Z" fill="#2D2925"/>
<path d="M85.6696 21.3399H91.8554L97.2421 32.4089L102.614 21.3399H108.815L100.172 38.1133V44.1281H94.2528V38.1133L85.6696 21.3399Z" fill="#2D2925"/>
<path d="M129.725 31.4335L125.152 39.5764H120.594L116.022 31.4335V44.1281H110.102V21.3399H116.303L122.829 33.3842L129.34 21.3399H135.541V44.1281H129.622L129.725 31.4335Z" fill="#2D2925"/>
<path d="M139.537 21.3399H153.225C154.116 21.2574 155.014 21.3521 155.867 21.6185C156.721 21.8848 157.513 22.3175 158.198 22.8916C158.76 23.5813 159.18 24.3749 159.434 25.227C159.687 26.0791 159.77 26.9729 159.678 27.8571V31.1084C159.86 32.8937 159.328 34.6787 158.198 36.0739C157.513 36.648 156.721 37.0807 155.867 37.347C155.014 37.6134 154.116 37.7081 153.225 37.6256H145.412V44.1281H139.492L139.537 21.3399ZM153.906 27.8571C153.946 27.5912 153.922 27.3198 153.838 27.0644C153.754 26.809 153.612 26.5767 153.422 26.3859C153.233 26.1951 153.001 26.0511 152.746 25.9653C152.491 25.8795 152.219 25.8543 151.953 25.8916H145.441V33.0591H151.953C152.218 33.0959 152.488 33.0709 152.742 32.9858C152.996 32.9008 153.226 32.7582 153.416 32.5692C153.605 32.3801 153.748 32.1498 153.833 31.8964C153.918 31.6429 153.943 31.3732 153.906 31.1084V27.8571Z" fill="#2D2925"/>
<path d="M182.616 44.1281H176.696V34.8473H168.542V44.1281H162.623V21.3399H168.542V30.2956H176.696V21.3399H182.616V44.1281Z" fill="#2D2925"/>
<path d="M185.871 39.4138C191.791 39.7389 195.86 39.9015 197.977 39.9015C198.196 39.9247 198.418 39.8987 198.626 39.8252C198.834 39.7518 199.023 39.6327 199.179 39.4769C199.335 39.321 199.455 39.1323 199.528 38.9245C199.602 38.7167 199.628 38.495 199.605 38.2759V35.3202H192.102C190.314 35.5023 188.526 34.9711 187.129 33.8424C185.999 32.4471 185.467 30.6622 185.649 28.8768V27.9015C185.557 27.0173 185.64 26.1235 185.894 25.2714C186.147 24.4193 186.567 23.6256 187.129 22.936C188.515 21.7808 190.304 21.2226 192.102 21.3842H203.556V25.936H193.404C193.137 25.8986 192.866 25.9238 192.611 26.0096C192.355 26.0954 192.124 26.2394 191.934 26.4302C191.745 26.621 191.602 26.8533 191.518 27.1087C191.434 27.3641 191.411 27.6356 191.45 27.9015V28.5517C191.414 28.8165 191.439 29.0862 191.524 29.3397C191.609 29.5932 191.752 29.8235 191.941 30.0125C192.13 30.2015 192.361 30.3442 192.615 30.4292C192.869 30.5142 193.139 30.5393 193.404 30.5025H199.323C200.164 30.4289 201.011 30.5215 201.816 30.7751C202.621 31.0287 203.368 31.4382 204.015 31.9803C204.559 32.6276 204.97 33.376 205.224 34.1825C205.478 34.989 205.57 35.8377 205.494 36.6798V38.3054C205.571 39.1453 205.48 39.992 205.226 40.7963C204.972 41.6007 204.56 42.3464 204.015 42.9901C203.37 43.535 202.623 43.9463 201.818 44.2C201.012 44.4538 200.164 44.5448 199.323 44.468C198.213 44.468 197.044 44.468 195.801 44.3941L192.842 44.2611C190.622 44.1576 188.402 44.0098 185.96 43.8029L185.871 39.4138Z" fill="#2D2925"/>
<path d="M218.251 21.3399H231.954C233.752 21.1783 235.541 21.7365 236.927 22.8916C237.502 23.5756 237.935 24.3666 238.202 25.219C238.468 26.0713 238.563 26.968 238.481 27.8571V30.8128C238.557 32.2669 238.245 33.7152 237.578 35.0098C237.255 35.5066 236.837 35.9339 236.346 36.2664C235.855 36.5989 235.303 36.8299 234.722 36.9458L238.806 44.0985H232.443L228.699 37.2709H224.126V44.0985H218.206L218.251 21.3399ZM232.606 27.8571C232.645 27.5912 232.622 27.3198 232.538 27.0644C232.454 26.809 232.311 26.5767 232.122 26.3859C231.932 26.1951 231.701 26.0511 231.445 25.9653C231.19 25.8795 230.919 25.8543 230.652 25.8916H224.126V32.734H230.652C230.917 32.7708 231.187 32.7457 231.441 32.6607C231.695 32.5757 231.926 32.4331 232.115 32.244C232.304 32.055 232.447 31.8247 232.532 31.5712C232.617 31.3178 232.642 31.048 232.606 30.7832V27.8571Z" fill="#2D2925"/>
<path d="M259.865 44.1281H241.766V21.3399H259.865V25.8916H247.641V30.3251H257.26V34.8769H247.641V39.6059H259.865V44.1281Z" fill="#2D2925"/>
<path d="M282.078 43.6404C277.419 44.1647 272.736 44.4409 268.048 44.468C267.207 44.5448 266.359 44.4538 265.554 44.2C264.749 43.9463 264.002 43.535 263.357 42.9901C262.812 42.3464 262.4 41.6007 262.146 40.7964C261.892 39.992 261.8 39.1453 261.877 38.3054V27.9606C261.785 27.0764 261.868 26.1826 262.122 25.3305C262.375 24.4784 262.795 23.6847 263.357 22.9951C264.743 21.8399 266.532 21.2817 268.33 21.4433H280.08V25.9951H269.632C269.365 25.9577 269.094 25.9829 268.839 26.0687C268.583 26.1545 268.352 26.2985 268.162 26.4893C267.973 26.6801 267.83 26.9125 267.746 27.1678C267.662 27.4232 267.639 27.6947 267.678 27.9606V38.3054C267.667 38.5224 267.701 38.7393 267.777 38.9427C267.853 39.1461 267.971 39.3316 268.122 39.4877C268.28 39.6374 268.466 39.7538 268.669 39.83C268.872 39.9062 269.089 39.9406 269.306 39.931C271.807 39.931 274.101 39.931 276.158 39.7685V35.0394H271.926V31.1084H282.033L282.078 43.6404Z" fill="#2D2925"/>
<path d="M303.462 44.1281H285.363V21.3399H303.462V25.8916H291.238V30.3251H300.857V34.8769H291.238V39.6059H303.462V44.1281Z" fill="#2D2925"/>
<path d="M326 44.1281H319.799L311.971 30.4581V44.1281H306.051V21.3399H312.252L320.081 35.0099V21.3399H326V44.1281Z" fill="#2D2925"/>
</g>
<defs>
<clipPath id="clip0_1:726">
<rect width="326" height="63" fill="white"/>
</clipPath>
</defs>
</svg>
