{
    "asset" : {
        "generator" : "Khronos glTF Blender I/O v1.6.16",
        "version" : "2.0"
    },
    "scene" : 0,
    "scenes" : [
        {
            "extras" : {
                "glTF2ExportSettings" : {
                    "export_extras" : 1,
                    "export_format" : "GLTF_EMBEDDED",
                    "use_renderable" : 1,
                    "use_visible" : 1
                }
            },
            "name" : "Scene",
            "nodes" : [
                0,
                1,
                2,
                3
            ]
        }
    ],
    "nodes" : [
        {
            "mesh" : 0,
            "name" : "Plane.001",
            "scale" : [
                0.839128315448761,
                0.839128315448761,
                0.839128315448761
            ],
            "translation" : [
                0.9505425095558167,
                0.9985555410385132,
                0
            ]
        },
        {
            "mesh" : 1,
            "name" : "Plane.003",
            "rotation" : [
                0.7071068286895752,
                0,
                0,
                0.7071068286895752
            ],
            "scale" : [
                0.839128315448761,
                0.839128315448761,
                0.839128315448761
            ],
            "translation" : [
                0.9505424499511719,
                -0.007654419168829918,
                0.9943139553070068
            ]
        },
        {
            "mesh" : 2,
            "name" : "Plane.021",
            "rotation" : [
                0,
                0,
                -0.7071067690849304,
                -0.7071068286895752
            ],
            "scale" : [
                0.9691058397293091,
                1,
                1
            ],
            "translation" : [
                -1.030001163482666,
                -0.010496556758880615,
                -0.3343851864337921
            ]
        },
        {
            "mesh" : 3,
            "name" : "Cube"
        }
    ],
    "materials" : [
        {
            "doubleSided" : true,
            "name" : "Mat003",
            "pbrMetallicRoughness" : {
                "baseColorFactor" : [
                    0.723055362701416,
                    0.3915724456310272,
                    0.20155635476112366,
                    1
                ],
                "metallicFactor" : 0.5,
                "roughnessFactor" : 0
            }
        },
        {
            "doubleSided" : true,
            "name" : "Material.001",
            "pbrMetallicRoughness" : {
                "baseColorFactor" : [
                    0.006032115314155817,
                    0.31172409653663635,
                    0.14700236916542053,
                    1
                ],
                "metallicFactor" : 0.5,
                "roughnessFactor" : 0
            }
        },
        {
            "doubleSided" : true,
            "name" : "Material.003",
            "pbrMetallicRoughness" : {
                "baseColorFactor" : [
                    0.6974818110466003,
                    0.6974815130233765,
                    0.6974818110466003,
                    1
                ],
                "metallicFactor" : 0,
                "roughnessFactor" : 0
            }
        }
    ],
    "meshes" : [
        {
            "name" : "Plane.005",
            "primitives" : [
                {
                    "attributes" : {
                        "POSITION" : 0,
                        "NORMAL" : 1,
                        "TEXCOORD_0" : 2
                    },
                    "indices" : 3,
                    "material" : 0
                }
            ]
        },
        {
            "name" : "Plane.007",
            "primitives" : [
                {
                    "attributes" : {
                        "POSITION" : 4,
                        "NORMAL" : 5,
                        "TEXCOORD_0" : 6
                    },
                    "indices" : 7,
                    "material" : 0
                }
            ]
        },
        {
            "name" : "Plane.023",
            "primitives" : [
                {
                    "attributes" : {
                        "POSITION" : 8,
                        "NORMAL" : 9,
                        "TEXCOORD_0" : 10
                    },
                    "indices" : 11,
                    "material" : 1
                }
            ]
        },
        {
            "name" : "Cube",
            "primitives" : [
                {
                    "attributes" : {
                        "POSITION" : 12,
                        "NORMAL" : 13,
                        "TEXCOORD_0" : 14
                    },
                    "indices" : 15,
                    "material" : 2
                }
            ]
        }
    ],
    "accessors" : [
        {
            "bufferView" : 0,
            "componentType" : 5126,
            "count" : 104,
            "max" : [
                -0.1391376256942749,
                0.04766851291060448,
                1
            ],
            "min" : [
                -2.1327738761901855,
                -1.1920928955078125e-07,
                -1
            ],
            "type" : "VEC3"
        },
        {
            "bufferView" : 1,
            "componentType" : 5126,
            "count" : 104,
            "type" : "VEC3"
        },
        {
            "bufferView" : 2,
            "componentType" : 5126,
            "count" : 104,
            "type" : "VEC2"
        },
        {
            "bufferView" : 3,
            "componentType" : 5123,
            "count" : 264,
            "type" : "SCALAR"
        },
        {
            "bufferView" : 4,
            "componentType" : 5126,
            "count" : 128,
            "max" : [
                -0.1391376256942749,
                0.047668639570474625,
                1
            ],
            "min" : [
                -2.1327736377716064,
                0,
                -1
            ],
            "type" : "VEC3"
        },
        {
            "bufferView" : 5,
            "componentType" : 5126,
            "count" : 128,
            "type" : "VEC3"
        },
        {
            "bufferView" : 6,
            "componentType" : 5126,
            "count" : 128,
            "type" : "VEC2"
        },
        {
            "bufferView" : 7,
            "componentType" : 5123,
            "count" : 300,
            "type" : "SCALAR"
        },
        {
            "bufferView" : 8,
            "componentType" : 5126,
            "count" : 3144,
            "max" : [
                0.8430696129798889,
                8.791685104370117e-07,
                1.173513650894165
            ],
            "min" : [
                -0.8430694937705994,
                -0.03000037744641304,
                -0.49893054366111755
            ],
            "type" : "VEC3"
        },
        {
            "bufferView" : 9,
            "componentType" : 5126,
            "count" : 3144,
            "type" : "VEC3"
        },
        {
            "bufferView" : 10,
            "componentType" : 5126,
            "count" : 3144,
            "type" : "VEC2"
        },
        {
            "bufferView" : 11,
            "componentType" : 5123,
            "count" : 6060,
            "type" : "SCALAR"
        },
        {
            "bufferView" : 12,
            "componentType" : 5126,
            "count" : 346,
            "max" : [
                1,
                1,
                1
            ],
            "min" : [
                -1,
                -1,
                -1
            ],
            "type" : "VEC3"
        },
        {
            "bufferView" : 13,
            "componentType" : 5126,
            "count" : 346,
            "type" : "VEC3"
        },
        {
            "bufferView" : 14,
            "componentType" : 5126,
            "count" : 346,
            "type" : "VEC2"
        },
        {
            "bufferView" : 15,
            "componentType" : 5123,
            "count" : 1764,
            "type" : "SCALAR"
        }
    ],
    "bufferViews" : [
        {
            "buffer" : 0,
            "byteLength" : 1248,
            "byteOffset" : 0
        },
        {
            "buffer" : 0,
            "byteLength" : 1248,
            "byteOffset" : 1248
        },
        {
            "buffer" : 0,
            "byteLength" : 832,
            "byteOffset" : 2496
        },
        {
            "buffer" : 0,
            "byteLength" : 528,
            "byteOffset" : 3328
        },
        {
            "buffer" : 0,
            "byteLength" : 1536,
            "byteOffset" : 3856
        },
        {
            "buffer" : 0,
            "byteLength" : 1536,
            "byteOffset" : 5392
        },
        {
            "buffer" : 0,
            "byteLength" : 1024,
            "byteOffset" : 6928
        },
        {
            "buffer" : 0,
            "byteLength" : 600,
            "byteOffset" : 7952
        },
        {
            "buffer" : 0,
            "byteLength" : 37728,
            "byteOffset" : 8552
        },
        {
            "buffer" : 0,
            "byteLength" : 37728,
            "byteOffset" : 46280
        },
        {
            "buffer" : 0,
            "byteLength" : 25152,
            "byteOffset" : 84008
        },
        {
            "buffer" : 0,
            "byteLength" : 12120,
            "byteOffset" : 109160
        },
        {
            "buffer" : 0,
            "byteLength" : 4152,
            "byteOffset" : 121280
        },
        {
            "buffer" : 0,
            "byteLength" : 4152,
            "byteOffset" : 125432
        },
        {
            "buffer" : 0,
            "byteLength" : 2768,
            "byteOffset" : 129584
        },
        {
            "buffer" : 0,
            "byteLength" : 3528,
            "byteOffset" : 132352
        }
    ],
    "buffers" : [
        {
            "byteLength" : 135880,
            "uri" : "data:application/octet-stream;base64,"
        }
    ]
}
